<svg xmlns="http://www.w3.org/2000/svg" viewBox="0 0 100 100" width="100" height="100">
  <defs>
    <linearGradient id="moonGradient" x1="0%" y1="0%" x2="100%" y2="100%">
      <stop offset="0%" style="stop-color:#f8fafc;stop-opacity:1" />
      <stop offset="100%" style="stop-color:#cbd5e1;stop-opacity:1" />
    </linearGradient>
  </defs>
  
  <!-- Moon background -->
  <circle cx="50" cy="50" r="45" fill="url(#moonGradient)" stroke="#64748b" stroke-width="2"/>
  
  <!-- Werewolf silhouette -->
  <path d="M30 65 Q35 55 40 60 Q45 50 50 55 Q55 50 60 60 Q65 55 70 65 Q65 75 60 70 Q55 80 50 75 Q45 80 40 70 Q35 75 30 65 Z" fill="#1e293b"/>
  
  <!-- Eyes -->
  <circle cx="42" cy="62" r="2" fill="#ef4444"/>
  <circle cx="58" cy="62" r="2" fill="#ef4444"/>
  
  <!-- Ears -->
  <path d="M35 55 L30 45 L40 50 Z" fill="#1e293b"/>
  <path d="M65 55 L70 45 L60 50 Z" fill="#1e293b"/>
</svg>